{"title":"Outlander.S02.2160p.NF.WEBRip.DD5.1.x264-NTb","uid":15742261,"size":205157960372,"categoryP":"video","categoryS":"hd___tv_shows","magnet":"?xt=urn:btih:aced764455e97e4c161119d1a65c7b63aa4526a0&amp;dn=Outlander.S02.2160p.NF.WEBRip.DD5.1.x264-NTb&amp;tr=udp%3A%2F%2Ftracker.leechers-paradise.org%3A6969&amp;tr=udp%3A%2F%2Fzer0day.ch%3A1337&amp;tr=udp%3A%2F%2Fopen.demonii.com%3A1337&amp;tr=udp%3A%2F%2Ftracker.coppersurfer.tk%3A6969&amp;tr=udp%3A%2F%2Fexodus.desync.com%3A6969","seeders":2,"leechers":12,"uploader":"BreexeOX","files":29,"time":1472929860,"description":"General\r\nFormat                         : Matroska\r\nFormat version                 : Version 4 / Version 2\r\nFile size                      : 16.5 GiB\r\nDuration                       : 59 min\r\nOverall bit rate               : 39.7 Mb/s\r\nEncoded date                   : UTC 2016-04-13 12:48:16\r\nWriting application            : mkvmerge v7.6.0 ('Garden of Dreams') 64bit built on Feb  8 2015 13:04:34\r\nWriting library                : libebml v1.3.1 + libmatroska v1.4.2\r\n\r\nVideo\r\nID                             : 1\r\nFormat                         : AVC\r\nFormat/Info                    : Advanced Video Codec\r\nFormat profile                 :   \r\nFormat settings, CABAC         : Yes\r\nFormat settings, ReFrames      : 5 frames\r\nCodec ID                       : V_MPEG4/ISO/AVC\r\nDuration                       : 59 min\r\nBit rate                       : 38.5 Mb/s\r\nWidth                          : 3 840 pixels\r\nHeight                         : 2 160 pixels\r\nDisplay aspect ratio           : 16:9\r\nFrame rate mode                : Constant\r\nFrame rate                     : 23.976 (24000/1001) FPS\r\nColor space                    : YUV\r\nChroma subsampling             : 4:2:0\r\nBit depth                      : 8 bits\r\nScan type                      : Progressive\r\nBits/(Pixel*Frame)             : 0.194\r\nStream size                    : 16.0 GiB (97%)\r\nWriting library                : x264 core 144 r2525 40bb568\r\nLanguage                       : English\r\nDefault                        : Yes\r\nForced                         : No\r\n\r\nAudio\r\nID                             : 2\r\nFormat                         : AC-3\r\nFormat/Info                    : Audio Coding 3\r\nMode extension                 : CM (complete main)\r\nFormat settings, Endianness    : Big\r\nCodec ID                       : A_AC3\r\nDuration                       : 59 min\r\nBit rate mode                  : Constant\r\nBit rate                       : 384 kb/s\r\nChannel(s)                     : 6 channels\r\nChannel positions              : Front: L C R, Side: L R, LFE\r\nSampling rate                  : 48.0 kHz\r\nFrame rate                     : 31.250 FPS (1536 spf)\r\nCompression mode               : Lossy\r\nStream size                    : 163 MiB (1%)\r\nLanguage                       : English\r\nDefault                        : Yes\r\nForced                         : No\r\n\r\nText\r\nID                             : 3\r\nFormat                         : UTF-8\r\nCodec ID                       : S_TEXT/UTF8\r\nCodec ID/Info                  : UTF-8 Plain Text\r\nLanguage                       : English\r\nDefault                        : No\r\nForced                         : No","torrent":{"xt":"urn:btih:aced764455e97e4c161119d1a65c7b63aa4526a0","amp;dn":"Outlander.S02.2160p.NF.WEBRip.DD5.1.x264-NTb","amp;tr":["udp%3A%2F%2Ftracker.leechers-paradise.org%3A6969","udp%3A%2F%2Fzer0day.ch%3A1337","udp%3A%2F%2Fopen.demonii.com%3A1337","udp%3A%2F%2Ftracker.coppersurfer.tk%3A6969","udp%3A%2F%2Fexodus.desync.com%3A6969"],"infoHash":"aced764455e97e4c161119d1a65c7b63aa4526a0","infoHashBuffer":{"type":"Buffer","data":[172,237,118,68,85,233,126,76,22,17,25,209,166,92,123,99,170,69,38,160]},"announce":[],"urlList":[]}}